<svg width="20" height="20" viewBox="0 0 20 20" fill="none" xmlns="http://www.w3.org/2000/svg">
<g clip-path="url(#clip0_1_208)">
<path d="M9.85748 9.63406C11.181 9.63406 12.3271 9.15936 13.2635 8.22278C14.2 7.28635 14.6747 6.14057 14.6747 4.81688C14.6747 3.49364 14.2 2.34771 13.2634 1.41097C12.3268 0.474699 11.1809 0 9.85748 0C8.53378 0 7.388 0.474699 6.45157 1.41113C5.51514 2.34756 5.04028 3.49349 5.04028 4.81688C5.04028 6.14057 5.51514 7.2865 6.45172 8.22293C7.38831 9.1592 8.53424 9.63406 9.85748 9.63406Z" fill="#B1B1B1"/>
<path d="M18.2863 15.379C18.2593 14.9893 18.2047 14.5641 18.1242 14.1152C18.0431 13.663 17.9385 13.2354 17.8134 12.8446C17.6842 12.4407 17.5084 12.0419 17.2911 11.6596C17.0656 11.2629 16.8007 10.9175 16.5034 10.6332C16.1926 10.3358 15.8121 10.0967 15.372 9.92229C14.9335 9.74879 14.4475 9.6609 13.9276 9.6609C13.7234 9.6609 13.526 9.74467 13.1447 9.99293C12.91 10.146 12.6355 10.323 12.3291 10.5187C12.0671 10.6857 11.7122 10.8421 11.2738 10.9837C10.8461 11.1221 10.4118 11.1923 9.98322 11.1923C9.5546 11.1923 9.12048 11.1221 8.69232 10.9837C8.25439 10.8422 7.89948 10.6858 7.63779 10.5189C7.33429 10.325 7.05963 10.148 6.82144 9.99278C6.44058 9.74452 6.24298 9.66075 6.03882 9.66075C5.5188 9.66075 5.03296 9.74879 4.59457 9.92244C4.15482 10.0965 3.77411 10.3356 3.46298 10.6333C3.16589 10.9178 2.90085 11.2631 2.67563 11.6596C2.4585 12.0419 2.28271 12.4406 2.15332 12.8448C2.02835 13.2356 1.92383 13.663 1.84265 14.1152C1.76224 14.5635 1.70761 14.9888 1.6806 15.3794C1.65405 15.7621 1.64062 16.1593 1.64062 16.5604C1.64062 17.6044 1.9725 18.4496 2.62695 19.0729C3.27332 19.688 4.12857 20.0001 5.16861 20.0001H14.7987C15.8388 20.0001 16.6937 19.6882 17.3402 19.0729C17.9948 18.4501 18.3267 17.6047 18.3267 16.5603C18.3266 16.1573 18.313 15.7598 18.2863 15.379Z" fill="#B1B1B1"/>
</g>
<defs>
<clipPath id="clip0_1_208">
<rect width="20" height="20" fill="white"/>
</clipPath>
</defs>
</svg>
