<svg width="50" height="50" viewBox="0 0 50 50" fill="none" xmlns="http://www.w3.org/2000/svg">
<circle cx="25" cy="25" r="25" fill="#FFE0EB"/>
<g clip-path="url(#clip0_1_56)">
<path d="M25.5862 25.5855V15C19.9161 15.2974 15.2981 19.9154 15.0007 25.5855H25.5862ZM23.2426 23.8278H22.0707V22.6559H23.2426V23.8278ZM19.7271 20.3123H20.8989V21.4841H19.7271V20.3123ZM22.6566 20.0697L23.4852 20.8982L20.313 24.0704L19.4845 23.2418L22.6566 20.0697Z" fill="#FF82AC"/>
<path d="M25.586 26.7573H18.5774C18.8629 30.4914 21.852 33.4804 25.586 33.766V26.7573H25.586Z" fill="#FF82AC"/>
<path d="M26.7577 17.3437C26.7577 17.4695 26.7577 35.1375 26.7577 34.9992C31.3306 34.6955 34.9995 30.7615 34.9995 26.1129C34.9995 21.4639 31.3317 17.6463 26.7577 17.3437ZM30.2732 25.5855C31.2424 25.5855 32.0309 26.374 32.0309 27.3432C32.0309 28.1061 31.5396 28.7504 30.8591 28.9931V30.2728H29.6872V28.9931C29.0067 28.7504 28.5154 28.1061 28.5154 27.3432H29.6872C29.6872 27.6665 29.9499 27.9292 30.2732 27.9292C30.5964 27.9292 30.8591 27.6665 30.8591 27.3432C30.8591 27.02 30.5964 26.7573 30.2732 26.7573C29.3039 26.7573 28.5154 25.9689 28.5154 24.9996C28.5154 24.2367 29.0067 23.5925 29.6872 23.3498V22.07H30.8591V23.3498C31.5396 23.5925 32.0309 24.2367 32.0309 24.9996H30.8591C30.8591 24.6763 30.5964 24.4137 30.2732 24.4137C29.9499 24.4137 29.6872 24.6763 29.6872 24.9996C29.6872 25.3229 29.9499 25.5855 30.2732 25.5855Z" fill="#FF82AC"/>
</g>
<defs>
<clipPath id="clip0_1_56">
<rect width="20" height="20" fill="white" transform="translate(15 15)"/>
</clipPath>
</defs>
</svg>
