<svg width="50" height="50" viewBox="0 0 50 50" fill="none" xmlns="http://www.w3.org/2000/svg">
<circle cx="25" cy="25" r="25" fill="#E7EDFF"/>
<g clip-path="url(#clip0_1_69)">
<path d="M34.8175 18.9334L31.0676 15.1835C30.8888 15.0048 30.6201 14.951 30.3863 15.0485C30.1526 15.146 30.0001 15.3723 30.0001 15.6247V17.4997H21.8754C18.078 17.4997 15.0006 20.5771 15.0006 24.3745C15.0006 24.7195 15.2806 24.9995 15.6256 24.9995H18.1255C18.4705 24.9995 18.7505 24.7195 18.7505 24.3745C18.7505 22.6483 20.1492 21.2496 21.8754 21.2496H30.0001V23.1245C30.0001 23.377 30.1526 23.6057 30.3863 23.702C30.6201 23.7995 30.8888 23.7457 31.0676 23.567L34.8175 19.8171C35.0612 19.5734 35.0612 19.1771 34.8175 18.9334Z" fill="#396AFF"/>
<path d="M34.3747 24.9995H31.8748C31.5298 24.9995 31.2498 25.2794 31.2498 25.6244C31.2498 27.3506 29.8511 28.7493 28.1249 28.7493H20.0002V26.8744C20.0002 26.6219 19.8477 26.3932 19.6139 26.2969C19.3802 26.2007 19.1127 26.2544 18.9327 26.4332L15.1828 30.1831C14.9391 30.4268 14.9391 30.823 15.1828 31.0668L18.9327 34.8167C19.1114 34.9954 19.3802 35.0492 19.6139 34.9517C19.8477 34.8542 20.0002 34.6267 20.0002 34.3742V32.4992H28.1249C31.9223 32.4992 34.9997 29.4218 34.9997 25.6244C34.9997 25.2794 34.7197 24.9995 34.3747 24.9995Z" fill="#396AFF"/>
</g>
<defs>
<clipPath id="clip0_1_69">
<rect width="20" height="20" fill="white" transform="translate(15 15)"/>
</clipPath>
</defs>
</svg>
