<svg width="50" height="50" viewBox="0 0 50 50" fill="none" xmlns="http://www.w3.org/2000/svg">
<circle cx="25" cy="25" r="25" fill="#DCFAF8"/>
<path d="M27.6633 19.9429H29.6323L29.5984 18.7435H27.934L29.4983 15.5105L27.7285 15.3624L26.1741 16.5539L26.6924 15.2065L24.8783 15L24.2833 16.6838L23.3056 15.3801L20.616 15.2868L22.3957 18.7441L20.7891 18.6924V19.9424H22.3373C19.0355 21.8749 16.6567 26.9263 16.6567 29.6551C16.6567 33.0758 20.3923 35 24.9998 35C29.6073 35 33.3429 33.0758 33.3429 29.6551C33.3434 26.9263 30.9651 21.8754 27.6633 19.9429ZM25.6975 31.2961V32.4803H24.5592V31.3774C23.7812 31.3435 23.0261 31.1329 22.585 30.8784L22.9333 29.5205C23.4209 29.788 24.1066 30.031 24.8611 30.031C25.5228 30.031 25.9759 29.7755 25.9759 29.3119C25.9759 28.8692 25.6047 28.5902 24.7453 28.3008C23.5022 27.8831 22.6549 27.3017 22.6549 26.1764C22.6549 25.1544 23.375 24.3523 24.6176 24.1093V23.0059H25.7559V24.028C26.5334 24.0635 27.0569 24.2246 27.4396 24.4108L27.1028 25.7233C26.8009 25.596 26.2664 25.328 25.4305 25.328C24.6755 25.328 24.4314 25.6529 24.4314 25.9777C24.4314 26.3615 24.8382 26.605 25.8253 26.9768C27.2066 27.466 27.7645 28.1032 27.7645 29.1492C27.765 30.1812 27.0329 31.064 25.6975 31.2961Z" fill="#16DBCC"/>
</svg>
