<svg width="20" height="20" viewBox="0 0 20 20" fill="none" xmlns="http://www.w3.org/2000/svg">
<g clip-path="url(#clip0_1_167)">
<path d="M17.6621 5.51029V5.2367C17.6621 3.979 16.6389 2.95576 15.3812 2.95576H2.28094C1.0232 2.9558 0 3.979 0 5.2367V5.51029H17.6621Z" fill="#B1B1B1"/>
<path d="M10.4347 12.8475C10.4347 11.6643 10.8152 10.5397 11.5178 9.61292H0V12.7946C0 14.0523 1.0232 15.0756 2.28094 15.0756H10.9162C10.601 14.3851 10.4347 13.6291 10.4347 12.8475ZM8.83109 12.1561H6.8625V10.9843H8.83109V12.1561ZM2.62727 10.9843H5.69062V12.1561H2.62727V10.9843Z" fill="#B1B1B1"/>
<path d="M12.7344 8.4411C13.6281 7.81582 14.6898 7.47895 15.8033 7.47895C16.4478 7.47895 17.0748 7.59211 17.6621 7.8084V6.68223H0V8.4411H12.7344Z" fill="#B1B1B1"/>
<path d="M20 12.8475C20 10.5297 18.1211 8.65077 15.8033 8.65077C13.4855 8.65077 11.6066 10.5297 11.6066 12.8475C11.6066 15.1652 13.4855 17.0441 15.8033 17.0441C18.1211 17.0441 20 15.1652 20 12.8475ZM16.369 15.0894V15.5664H15.7831V15.5664V15.5664H15.1971V15.093C14.8429 14.973 14.553 14.7619 14.27 14.555L14.9618 13.6091C15.342 13.8872 15.5366 14.0209 15.8033 14.0209C15.9541 14.0209 16.0761 13.9491 16.1219 13.8336C16.1773 13.6937 16.099 13.5649 15.9124 13.4889C15.9124 13.4889 15.0748 13.2096 14.6876 12.8148C14.3627 12.4836 14.2594 12.0168 14.3628 11.5728C14.467 11.1257 14.7688 10.7762 15.1971 10.6016V10.1285H16.369V10.582C16.6666 10.6646 16.9185 10.7868 17.0634 10.8654L16.5043 11.8953C16.1336 11.6941 15.7925 11.6337 15.6598 11.6791C15.531 11.7231 15.5114 11.8071 15.5041 11.8387C15.4936 11.8835 15.4881 11.9523 15.5597 12.0321C15.6286 12.1089 16.3542 12.4036 16.3542 12.4036C17.1371 12.7223 17.5055 13.5226 17.2113 14.2653C17.0585 14.6512 16.7508 14.9435 16.369 15.0894Z" fill="#B1B1B1"/>
</g>
<defs>
<clipPath id="clip0_1_167">
<rect width="20" height="20" fill="white"/>
</clipPath>
</defs>
</svg>
