<svg width="16" height="16" viewBox="0 0 16 16" fill="none" xmlns="http://www.w3.org/2000/svg">
<path d="M14.8163 13.9347L11.2102 10.3286C12.1041 9.23878 12.6429 7.84286 12.6429 6.32143C12.6429 2.83163 9.81122 0 6.32143 0C2.82857 0 0 2.83163 0 6.32143C0 9.81122 2.82857 12.6429 6.32143 12.6429C7.84286 12.6429 9.23571 12.1071 10.3255 11.2133L13.9316 14.8163C14.1765 15.0612 14.5714 15.0612 14.8163 14.8163C15.0612 14.5745 15.0612 14.1765 14.8163 13.9347ZM6.32143 11.3847C3.52653 11.3847 1.2551 9.11327 1.2551 6.32143C1.2551 3.52959 3.52653 1.2551 6.32143 1.2551C9.11327 1.2551 11.3878 3.52959 11.3878 6.32143C11.3878 9.11327 9.11327 11.3847 6.32143 11.3847Z" fill="#718EBF"/>
</svg>
