<svg width="20" height="20" viewBox="0 0 20 20" fill="none" xmlns="http://www.w3.org/2000/svg">
<g clip-path="url(#clip0_1_213)">
<path d="M3.84909 13.3343C4.05021 13.4539 4.22289 13.6097 4.36069 13.7896H6.96482V11.2645L5.73001 10.4989C5.455 10.3284 5.37028 9.96723 5.54077 9.69222C5.7113 9.41729 6.07232 9.33257 6.34745 9.50298L7.5507 10.249L8.59951 9.59875C6.50759 6.73027 6.98802 2.66577 9.77256 0.37169C5.1858 -1.16488 0.374264 2.25081 0.352547 7.15648C0.34122 9.75808 1.72629 12.0706 3.84909 13.3343Z" fill="#B1B1B1"/>
<path d="M4.72708 14.9614H10.2734V16.2894H4.72708V14.9614Z" fill="#B1B1B1"/>
<path d="M8.13657 11.2645V13.7896H10.632C10.7645 13.6148 10.9298 13.465 11.1222 13.3517C11.6547 13.0383 12.1436 12.656 12.5769 12.2184C11.3529 11.9428 10.2538 11.3342 9.37981 10.4931C9.34649 10.5147 9.10632 10.6633 8.13657 11.2645Z" fill="#B1B1B1"/>
<path d="M14.0622 0.0018692C10.9899 0.0018692 8.47675 2.54058 8.47675 5.62634C8.47675 8.52888 10.7049 10.9324 13.5618 11.1889C16.868 11.4843 19.6476 8.86342 19.6476 5.62634C19.6476 2.54655 17.142 0.0018692 14.0622 0.0018692ZM14.6488 8.16579V8.28824C14.6488 8.6118 14.3865 8.87412 14.0629 8.87412C13.7394 8.87412 13.4771 8.6118 13.4771 8.28824V8.23203C13.2071 8.18469 12.9605 8.08368 12.6489 7.87984C12.3781 7.7027 12.3022 7.33961 12.4794 7.06882C12.6565 6.79799 13.0196 6.72213 13.2904 6.89923C13.576 7.08608 13.6685 7.10065 14.059 7.09796C14.4359 7.09546 14.5861 6.79959 14.6154 6.62519C14.6417 6.4686 14.6121 6.26042 14.3218 6.15781C13.8353 5.98584 13.3365 5.78851 12.9832 5.51135C12.1785 4.88024 12.4214 3.43877 13.4771 3.05518V2.97034C13.4771 2.64678 13.7394 2.38446 14.063 2.38446C14.3865 2.38446 14.6489 2.64678 14.6489 2.97034V3.00284C14.9375 3.08431 15.17 3.23168 15.3297 3.39409C15.5566 3.62477 15.5535 3.99571 15.3228 4.2226C15.0922 4.44938 14.7216 4.44637 14.4947 4.21608C14.462 4.18417 14.2815 4.03368 13.8908 4.15136C13.7348 4.19835 13.6929 4.36013 13.6837 4.4086C13.6647 4.50976 13.6918 4.57796 13.7063 4.58937C13.9273 4.76271 14.3389 4.92101 14.7123 5.05303C16.2565 5.59884 16.0684 7.65259 14.6488 8.16579Z" fill="#B1B1B1"/>
<path d="M5.66452 18.1643C5.66452 19.1765 6.48804 20 7.50029 20C8.51253 20 9.33605 19.1765 9.33605 18.1643V17.4612H5.66452V18.1643Z" fill="#B1B1B1"/>
</g>
<defs>
<clipPath id="clip0_1_213">
<rect width="20" height="20" fill="white"/>
</clipPath>
</defs>
</svg>
