<svg width="20" height="20" viewBox="0 0 20 20" fill="none" xmlns="http://www.w3.org/2000/svg">
<g clip-path="url(#clip0_1_182)">
<path d="M19.8282 1.00035L18.9996 0.171715C18.8269 -0.00109689 18.5651 -0.0484406 18.3429 0.0523405L13.8924 2.01706C13.7172 2.09675 13.5925 2.25702 13.5582 2.44593C13.5241 2.63534 13.5844 2.82909 13.7204 2.96507L17.0349 6.27955C17.1709 6.41553 17.3646 6.4758 17.554 6.44178C17.743 6.40744 17.9032 6.2828 17.9829 6.1076L19.9476 1.65699C20.0484 1.43484 20.001 1.17308 19.8282 1.00035Z" fill="#B1B1B1"/>
<path d="M3.78513 12.9004L0.514041 16.1714C-0.171388 16.8569 -0.171388 17.9719 0.514041 18.6573L1.34263 19.4859C2.02806 20.1713 3.1431 20.1713 3.82849 19.4859L7.09958 16.2148L3.78513 12.9004ZM3.41993 17.4168C3.19091 17.6459 2.82025 17.6459 2.59126 17.4168C2.36232 17.1878 2.36232 16.8171 2.59126 16.5882L4.20513 14.9744C4.43415 14.7453 4.80477 14.7453 5.03372 14.9744C5.26274 15.2034 5.26274 15.574 5.03372 15.803L3.41993 17.4168Z" fill="#B1B1B1"/>
<path d="M9.58548 13.729L6.271 10.4145C5.81416 9.95763 5.07057 9.95763 4.61377 10.4145C4.15694 10.8713 4.15694 11.6149 4.61377 12.0717L7.92826 15.3862C8.38502 15.843 9.12865 15.843 9.58548 15.3862C10.0423 14.9295 10.0423 14.1858 9.58548 13.729Z" fill="#B1B1B1"/>
<path d="M15.3778 6.27952L13.7205 4.62225L9.17117 9.17154C8.71355 8.71393 7.97164 8.71393 7.51394 9.17154L7.09961 9.58588L10.4141 12.9004L10.8284 12.486C11.286 12.0283 11.286 11.2865 10.8284 10.8288L15.3778 6.27952Z" fill="#B1B1B1"/>
<path d="M18.9717 13.9983C18.0205 13.0471 16.8767 12.8426 15.5643 13.0771L12.9005 10.4136L12.2644 11.0497C12.4738 11.8368 12.2702 12.7009 11.6567 13.3144L11.2432 13.7279L13.0764 15.561C12.8916 16.5954 12.9089 17.4727 13.5514 18.4242C14.2927 19.5227 15.5901 20.1471 16.9494 19.96C17.1742 19.9291 17.3619 19.7732 17.4341 19.5582C17.5063 19.3432 17.4506 19.1058 17.2903 18.9454L16.4844 18.141V16.484H18.1432L18.9445 17.2853C19.1052 17.446 19.3433 17.5014 19.5585 17.4285C19.7737 17.3557 19.929 17.1672 19.9593 16.9419C20.1024 15.8762 19.7537 14.7799 18.9717 13.9983Z" fill="#B1B1B1"/>
<path d="M6.91557 4.42589C7.14811 3.12718 6.95982 1.98468 5.99436 1.01851C5.33744 0.36164 4.45854 0 3.51956 0C3.36147 0 3.20507 0.0103125 3.05069 0.0307421C2.82526 0.0606639 2.63655 0.216211 2.56366 0.43164C2.49077 0.646991 2.54643 0.885116 2.70722 1.0459L3.51643 1.84707V3.51558H1.85108L1.04788 2.70113C0.887453 2.5407 0.649836 2.48519 0.434759 2.55757C0.219759 2.62996 0.0642515 2.81785 0.0333532 3.04265C-0.145162 4.34253 0.418079 5.66311 1.56726 6.43889C2.52241 7.08241 3.40499 7.09835 4.43163 6.91327L6.27229 8.75694L6.68592 8.34331C7.29943 7.72979 8.16353 7.52624 8.95064 7.73561L9.5865 7.09975L6.91557 4.42589Z" fill="#B1B1B1"/>
</g>
<defs>
<clipPath id="clip0_1_182">
<rect width="20" height="20" fill="white"/>
</clipPath>
</defs>
</svg>
