<svg width="20" height="20" viewBox="0 0 20 20" fill="none" xmlns="http://www.w3.org/2000/svg">
<path d="M4.16669 18.3334C4.16721 18.7752 4.34297 19.1988 4.65542 19.5113C4.96787 19.8237 5.39149 19.9995 5.83335 20H14.1667C14.6086 19.9995 15.0322 19.8237 15.3446 19.5113C15.6571 19.1988 15.8328 18.7752 15.8334 18.3334V17.6042H4.16669V18.3334Z" fill="#B1B1B1"/>
<path d="M15.8334 1.66667C15.8328 1.2248 15.6571 0.801181 15.3446 0.488734C15.0322 0.176287 14.6086 0.000523784 14.1667 0L5.83335 0C5.39149 0.000523784 4.96787 0.176287 4.65542 0.488734C4.34297 0.801181 4.16721 1.2248 4.16669 1.66667V2.5H15.8334V1.66667Z" fill="#B1B1B1"/>
<path d="M19.7678 5.36041L17.2678 2.75624L16.0655 3.91041L17.1115 4.99999H15.8333V6.66666H17.2014L16.0901 7.73166L17.2432 8.93499L19.7432 6.53916C19.8223 6.4634 19.8856 6.3728 19.9297 6.27255C19.9737 6.17229 19.9975 6.06435 19.9998 5.95488C20.0021 5.84541 19.9828 5.73656 19.943 5.63456C19.9032 5.53256 19.8436 5.4394 19.7678 5.36041Z" fill="#B1B1B1"/>
<path d="M13.3334 4.99998H15.8334V3.33331H4.16669V13.3333H6.66669V15H4.16669V16.6666H15.8334V6.66665H13.3334V4.99998ZM12.5 8.33331H9.58335C9.47285 8.33331 9.36687 8.37721 9.28873 8.45535C9.21059 8.53349 9.16669 8.63947 9.16669 8.74998C9.16669 8.86049 9.21059 8.96647 9.28873 9.04461C9.36687 9.12275 9.47285 9.16665 9.58335 9.16665H10.4167C10.9333 9.16613 11.4317 9.3576 11.8152 9.70389C12.1986 10.0502 12.4396 10.5266 12.4916 11.0406C12.5435 11.5546 12.4026 12.0696 12.0961 12.4856C11.7897 12.9016 11.3397 13.1888 10.8334 13.2916V14.1666H9.16669V13.3333H7.50002V11.6666H10.4167C10.5272 11.6666 10.6332 11.6227 10.7113 11.5446C10.7895 11.4665 10.8334 11.3605 10.8334 11.25C10.8334 11.1395 10.7895 11.0335 10.7113 10.9554C10.6332 10.8772 10.5272 10.8333 10.4167 10.8333H9.58335C9.06671 10.8338 8.5683 10.6424 8.18488 10.2961C7.80147 9.94979 7.5604 9.47339 7.50847 8.95935C7.45655 8.44532 7.59748 7.93034 7.9039 7.51437C8.21032 7.0984 8.66037 6.81112 9.16669 6.70831V5.83331H10.8334V6.66665H12.5V8.33331Z" fill="#B1B1B1"/>
<path d="M2.79865 13.3333L3.9099 12.2683L2.75678 11.065L0.256776 13.4608C0.177722 13.5366 0.114374 13.6272 0.0703514 13.7274C0.0263287 13.8277 0.00249474 13.9356 0.000211699 14.0451C-0.00207134 14.1546 0.0172413 14.2634 0.0570458 14.3654C0.0968504 14.4674 0.156366 14.5606 0.232192 14.6396L2.73219 17.2437L3.93448 16.0896L2.88855 15H4.16667V13.3333H2.79865Z" fill="#B1B1B1"/>
</svg>
